<?xml version="1.0" encoding="UTF-8"?>
<svg id="Layer_1" data-name="Layer 1" xmlns="http://www.w3.org/2000/svg" viewBox="0 0 1472.68 233.51">
  <defs>
    <style>
      .cls-1 {
        fill: #cf4732;
      }
    </style>
  </defs>
  <g>
    <path class="cls-1" d="M114.38,226.81c-67.92,0-106.59-41.66-106.59-109.6C7.79,53.99,46.75,12.04,114.38,12.04h128.06v48.09H114.38c-34.74,0-58.48,23.91-58.48,59.66s23.45,58.94,58.48,58.94h128.06v48.08H114.38Z"/>
    <path class="cls-1" d="M467.59,227l-57.44-54.67h-62.96v-48.41h86.55c22.52,0,38.96-11.25,38.96-31.15,0-22.81-17.04-31.96-38.96-31.96h-110.52v166.18h-47.93V11.6h156.44c50.37,0,88.3,31.11,88.3,80,0,35.26-21.59,62.85-48.55,73.52l63.59,61.89h-67.48Z"/>
    <path class="cls-1" d="M732.64,13h48.12v104.85c0,57.69-38.58,109.08-118.82,109.08-69.97,0-115.82-46.31-115.82-108.08l-.05-106.51h47.73l.05,97.51c0,37.45,15.26,69.67,69.54,69.67s69.25-32.22,69.25-69.67V13Z"/>
    <path class="cls-1" d="M808.71,226.66v-47.57h167.89c14.98,0,21.27-7.51,21.27-20.35,0-12.01-7.42-19.81-21.51-19.81h-99.21c-42.69,0-68.72-25.89-68.72-62.61s30.48-66.69,75.56-66.69h155.02v47.57l-161.02,1c-13.14,0-21.2,5.46-21.2,18.9s8.36,17.9,21.2,17.9h97.62c45.67,0,76.99,23.53,76.99,66.82,0,37.32-31.25,64.85-70.99,64.85h-172.89Z"/>
    <path class="cls-1" d="M1082.43,227.12V11.95h48.26v215.18h-48.26ZM1259.86,227.12v-83.15h-106.49v-48.74h106.49V11.95h47.26v215.18h-47.26Z"/>
  </g>
  <path class="cls-1" d="M1329.21,212.95c6.55-5.42,11.72-9.86,15.5-13.34,3.78-3.48,6.97-7.12,9.58-10.93s3.91-7.52,3.91-11.14c0-2.74-.64-4.88-1.91-6.42-1.27-1.54-3.18-2.31-5.72-2.31s-4.53.95-5.97,2.86c-1.44,1.91-2.16,4.6-2.16,8.08h-16.55c.13-5.68,1.35-10.43,3.66-14.25,2.31-3.81,5.35-6.62,9.13-8.43,3.78-1.81,7.98-2.71,12.59-2.71,7.96,0,13.96,2.04,18.01,6.12,4.05,4.08,6.07,9.4,6.07,15.95,0,7.16-2.44,13.79-7.32,19.91-4.88,6.12-11.1,12.09-18.66,17.91h27.09v13.94h-50.36v-12.74c2.27-1.81,3.31-2.64,3.11-2.51Z"/>
  <path class="cls-1" d="M1389.16,225.71c-1.91-1.77-2.86-3.96-2.86-6.57s.95-4.92,2.86-6.72,4.36-2.71,7.37-2.71,5.37.9,7.27,2.71,2.86,4.05,2.86,6.72-.95,4.8-2.86,6.57c-1.91,1.77-4.33,2.66-7.27,2.66s-5.47-.89-7.37-2.66Z"/>
  <path class="cls-1" d="M1419.7,163.89c4.45-6.62,11.62-9.93,21.52-9.93s17.07,3.31,21.52,9.93c4.45,6.62,6.67,15.68,6.67,27.19s-2.22,20.77-6.67,27.39c-4.45,6.62-11.62,9.93-21.52,9.93s-17.07-3.31-21.52-9.93c-4.45-6.62-6.67-15.75-6.67-27.39s2.22-20.57,6.67-27.19ZM1450.35,175.48c-1.47-3.64-4.51-5.47-9.13-5.47s-7.66,1.82-9.13,5.47c-1.47,3.65-2.21,8.85-2.21,15.6,0,4.55.27,8.31.8,11.29.53,2.98,1.62,5.38,3.26,7.22,1.64,1.84,4.06,2.76,7.27,2.76s5.63-.92,7.27-2.76c1.64-1.84,2.72-4.25,3.26-7.22.53-2.98.8-6.74.8-11.29,0-6.75-.74-11.95-2.21-15.6Z"/>
</svg>