<?xml version="1.0" encoding="UTF-8"?>
<svg xmlns="http://www.w3.org/2000/svg">
  <symbol id="icon-procurement" viewBox="0 0 64 64" fill="none">
    <path d="M8 42h48l-6-16H18L8 42Z"/>
    <path d="M12 42v9h9v-9m22 0v9h9v-9M22 34h20"/>
    <path d="M22 19h21m0 0-6-6m6 6-6 6M13 30l5-12h7"/>
  </symbol>
  <symbol id="icon-operations" viewBox="0 0 64 64" fill="none">
    <path d="M9 11h19v16H9zM36 37h19v16H36zM9 38h14v15H9zM41 11h14v15H41z"/>
    <path d="M27 19h14m-5-5 5 5-5 5M23 45h13m-5-5 5 5-5 5"/>
  </symbol>
  <symbol id="icon-roadmap" viewBox="0 0 64 64" fill="none">
    <path d="M9 50h11V39h12V28h12V17h11"/>
    <path d="M49 11h6v6M49 17h6v6"/>
    <path d="M13 34V14h14M19 8l8 6-8 6"/>
  </symbol>
  <symbol id="icon-discussion" viewBox="0 0 64 64" fill="none">
    <path d="M8 12h38v27H25L14 49V39H8V12Z"/>
    <path d="M29 44h15l9 8v-8h4V24h-7"/>
    <path d="M17 22h21M17 29h15"/>
  </symbol>
  <symbol id="icon-community" viewBox="0 0 64 64" fill="none">
    <path d="M26 10h12v12H26zM8 23h10v10H8zM46 23h10v10H46z"/>
    <path d="M21 53V40l11-8 11 8v13M5 53V42l8-6 8 6m38 11V42l-8-6-8 6"/>
  </symbol>
  <symbol id="icon-analytics" viewBox="0 0 64 64" fill="none">
    <path d="M8 53h48M13 47V35h10v12M27 47V26h10v21M41 47V15h10v32"/>
    <path d="m11 27 15-10 10 5 17-12M46 10h7v7"/>
  </symbol>
  <symbol id="icon-ai" viewBox="0 0 64 64" fill="none">
    <path d="M11 17h42v30H11zM18 10v7m10-7v7m8-7v7m10-7v7M18 47v7m10-7v7m8-7v7m10-7v7"/>
    <path d="M23 37V27l9-5 9 5v10l-9 5-9-5Z"/>
  </symbol>
  <symbol id="icon-partnership" viewBox="0 0 64 64" fill="none">
    <path d="M27 18 20 11 7 24l7 7m23 15 7 7 13-13-7-7"/>
    <path d="m17 35 18-18 12 12-18 18H17V35Z"/>
    <path d="m24 28 12 12"/>
  </symbol>
  <symbol id="icon-growth" viewBox="0 0 64 64" fill="none">
    <path d="M8 53h48M13 47V37h10v10M27 47V29h10v18M41 47V20h10v27"/>
    <path d="m11 30 16-11 9 5 17-13M46 11h7v7"/>
  </symbol>
</svg>
