<?xml version="1.0" encoding="UTF-8"?>
<svg xmlns="http://www.w3.org/2000/svg">
  <symbol id="icon-procurement" viewBox="0 0 64 64" fill="none">
    <path d="M12 38h40l-4-12H18l-6 12Z"/>
    <path d="M8 38v10h6m42-10v10h-6M20 48h24"/>
    <circle cx="17" cy="48" r="4"/><circle cx="47" cy="48" r="4"/>
    <path d="M23 19h17m0 0-5-5m5 5-5 5"/>
  </symbol>
  <symbol id="icon-operations" viewBox="0 0 64 64" fill="none">
    <rect x="9" y="12" width="18" height="15" rx="2"/><rect x="37" y="37" width="18" height="15" rx="2"/>
    <path d="M18 34h28M41 29l5 5-5 5M18 27v16h11"/>
    <path d="M24 39l5 4-5 4"/>
  </symbol>
  <symbol id="icon-roadmap" viewBox="0 0 64 64" fill="none">
    <circle cx="14" cy="45" r="5"/><circle cx="31" cy="27" r="5"/><circle cx="50" cy="17" r="5"/>
    <path d="M18 42c5-4 6-9 9-12m9-5 9-5M45 12h10v10"/>
    <path d="M15 17h12M21 11v12"/>
  </symbol>
  <symbol id="icon-discussion" viewBox="0 0 64 64" fill="none">
    <path d="M9 14h35v24H25L15 47v-9H9V14Z"/>
    <path d="M25 42h18l8 7v-7h4V24h-7"/>
    <path d="M17 24h19M17 30h13"/>
  </symbol>
  <symbol id="icon-community" viewBox="0 0 64 64" fill="none">
    <circle cx="32" cy="20" r="7"/><circle cx="14" cy="29" r="5"/><circle cx="50" cy="29" r="5"/>
    <path d="M20 51c1-10 5-16 12-16s11 6 12 16M5 51c1-8 4-13 10-13 3 0 5 1 7 4M59 51c-1-8-4-13-10-13-3 0-5 1-7 4"/>
  </symbol>
  <symbol id="icon-analytics" viewBox="0 0 64 64" fill="none">
    <path d="M10 52h44M16 46V33h8v13M29 46V23h8v23M42 46V13h8v33"/>
    <path d="m14 25 13-8 9 4 15-11"/>
  </symbol>
  <symbol id="icon-ai" viewBox="0 0 64 64" fill="none">
    <path d="m32 8 20 12v24L32 56 12 44V20L32 8Z"/>
    <circle cx="32" cy="32" r="6"/><circle cx="21" cy="24" r="3"/><circle cx="43" cy="24" r="3"/><circle cx="21" cy="41" r="3"/><circle cx="43" cy="41" r="3"/>
    <path d="m26 28-3-2m15 2 3-2m-15 9-3 4m15-4 3 4"/>
  </symbol>
  <symbol id="icon-partnership" viewBox="0 0 64 64" fill="none">
    <path d="m25 39-5 5a10 10 0 0 1-14-14l9-9a10 10 0 0 1 14 0l3 3"/>
    <path d="m39 25 5-5a10 10 0 0 1 14 14l-9 9a10 10 0 0 1-14 0l-3-3"/>
    <path d="m23 41 18-18"/>
  </symbol>
  <symbol id="icon-growth" viewBox="0 0 64 64" fill="none">
    <path d="M11 52h42M16 46V34h8v12M29 46V26h8v20M42 46V18h8v28"/>
    <path d="m14 27 13-9 9 4 16-11M45 11h7v7"/>
  </symbol>
</svg>
