<?xml version="1.0" encoding="UTF-8"?>
<svg id="Layer_1" xmlns="http://www.w3.org/2000/svg" version="1.1" viewBox="0 0 999 170">
  <!-- Generator: Adobe Illustrator 30.0.0, SVG Export Plug-In . SVG Version: 2.1.1 Build 123)  -->
  <defs>
    <style>
      .st0 {
        fill: #cf4732;
      }
    </style>
  </defs>
  <path class="st0" d="M39.1,85c0,18.8,8.9,37.9,27.9,43.9,3.5,1.1,8.5,1.6,15.2,1.4,1.3,0,34.4,0,99.2,0,.4,0,.7.3.7.7v35.8c0,.2-.2.4-.5.4-65.6,0-100.5,0-104.9,0C31.1,166.8,2.2,127.9,2.2,85,2.2,42,31.1,3.1,76.8,2.8c4.3,0,39.3,0,104.9,0,.2,0,.4.2.4.4v35.7c0,.4-.3.7-.7.7-64.8,0-97.9,0-99.2,0-6.6-.2-11.7.3-15.2,1.4-19,6-27.9,25.1-27.9,43.9Z"/>
  <path class="st0" d="M244.1,166.6c0,.3-.2.6-.6.6h-36c-.2,0-.4-.2-.4-.4V3.2c0-.2.2-.4.4-.4,76.3,0,118.8,0,127.5,0,14.5,0,28.7,5.9,39.6,15.9,17,15.6,24,39.8,17.2,62.3-5.4,17.7-16.7,30.6-33.9,38.6-.4.2-.4.6-.1.9l47.6,46.1c.2.2,0,.5-.2.5h-49.4c-.9,0-1.7-.3-2.4-.9l-41.9-40.5c-.7-.7-1.6-1-2.6-1h-45.9c-.4,0-.7-.3-.7-.7v-35.1c0-.4.3-.7.7-.8.6,0,2-.1,4.4-.1,37.2,0,58.2,0,62.9,0,5.1,0,8.9-.4,11.5-1.4,17.1-6.7,21.4-29.7,6.9-41.5-2.7-2.2-5.8-3.8-9.4-4.8-1.9-.5-5.4-.8-10.5-.6-.2,0-28.2,0-84.1,0-.3,0-.5.2-.5.5v126.4Z"/>
  <path class="st0" d="M503.9,130.2c5.3,0,8.6,0,9.9,0,21-.5,38.2-16.6,42.3-36.6.6-2.7.8-8.6.8-17.8,0-33.5,0-57.6,0-72.4,0-.3.3-.6.6-.6h35.7c.4,0,.7.3.7.7-.1,41.8-.2,69-.2,81.5,0,44.3-34.4,80.1-78.3,82-1.7,0-5.5.1-11.4.1-5.9,0-9.7,0-11.4-.1-44-2-78.3-37.7-78.3-82.1,0-12.5,0-39.7-.1-81.5,0-.4.3-.7.7-.7h35.7c.3,0,.6.3.6.6,0,14.8,0,39,0,72.4,0,9.1.2,15,.8,17.8,4.1,19.9,21.3,36.1,42.2,36.6,1.3,0,4.6,0,9.9,0Z"/>
  <path class="st0" d="M791.2,3.5v35.7c0,.2-.2.4-.4.4-35.6,0-76.4,0-122.2,0-4.4,0-7.3.3-8.9,1-2.9,1.3-5.1,3.3-6.5,6.1-2.8,5.5-2.2,10.6,1.9,15.3,2.6,3,5.9,4.4,10,4.4,33.5,0,62.6,0,87.2,0,30.6,0,53.5,27.9,49,58-2.9,19.8-18.1,36.4-37.3,41.2-4,1-10.5,1.5-19.6,1.5-43.1,0-86.2,0-129.2,0-.4,0-.7-.3-.7-.7v-35.5c0-.4.3-.8.8-.8h137.8c1.1,0,2.2-.2,3.1-.7,5-2.2,7.8-5.7,8.4-10.3,1-6.8-2.3-12.6-8.5-15-1.3-.5-3.7-.8-7.4-.7-31.6.1-59.5.2-83.8,0-28.7-.2-51.1-23.4-50.4-51.9.6-23.1,17.5-43.2,40.2-47.8,3.7-.7,8.7-1.1,15-.9.2,0,40.4,0,120.6,0s.7.3.7.7Z"/>
  <path class="st0" d="M861.2,166.2c0,.5-.4,1-1,1h-35.1c-.5,0-1-.4-1-1V3.8c0-.5.4-1,1-1h35.1c.5,0,1,.4,1,1v162.4Z"/>
  <path class="st0" d="M996.8,85c0,52.4,0,79.6,0,81.9,0,.2-.1.3-.3.3h-36.2c-.2,0-.4-.2-.4-.4v-62.6c0-.3-.3-.6-.6-.6h-78.8c-.4,0-.7-.3-.7-.7,0-.6,0-6.6,0-17.8s0-17.3,0-17.9c0-.4.3-.7.7-.7h78.8c.3,0,.6-.3.6-.6V3.2c0-.2.2-.4.5-.4h36.2c.2,0,.3.2.3.3,0,2.2,0,29.5,0,81.9Z"/>
</svg>