<?xml version="1.0" encoding="UTF-8"?>
<svg xmlns="http://www.w3.org/2000/svg" width="96" height="96" viewBox="0 0 96 96" role="img" aria-labelledby="title desc">
  <title id="title">Buying confidence</title>
  <desc id="desc">Dark-background variant. A vehicle evaluation panel with a highlighted recommended offer.</desc>
  <path fill="#f4f1ec" d="M8 8h58l22 22v58H8z"/>
  <path fill="#cf4732" d="M8 8h40v6H8z"/>
  <path fill="#cf4732" d="M66 8v22h22z"/>
  <g fill="none" stroke="#202225" stroke-width="4" stroke-linecap="square" stroke-linejoin="miter">
    <path d="M22 55h52v12H22z"/>
    <path d="m27 55 7-18h28l7 18"/>
    <path d="M39 37h18l6 18H33z"/>
    <path d="M29 61h7m24 0h7"/>
    <path d="M30 67v6m36-6v6"/>
  </g>
  <path fill="#cf4732" d="M18 76h60v8H18z"/>
  <path fill="#fff" d="m24 82 4-4 4 4h-3v2h-2v-2zM38 79h32v3H38z"/>
</svg>
