<?xml version="1.0" encoding="UTF-8"?>
<svg xmlns="http://www.w3.org/2000/svg" width="96" height="96" viewBox="0 0 96 96" role="img" aria-labelledby="title desc">
  <title id="title">Yard operators</title>
  <desc id="desc">A vehicle beneath a yard lifting hook and control line.</desc>
  <path fill="#202225" d="M8 8h58l22 22v58H8z"/>
  <path fill="#cf4732" d="M8 8h40v6H8zM66 8v22h22z"/>
  <g fill="none" stroke="#f4f1ec" stroke-width="4" stroke-linecap="square" stroke-linejoin="miter">
    <path d="M20 58h56v13H20zM25 58l7-16h32l7 16"/>
    <path d="M36 42h24l5 16H31zM28 65h8m24 0h8M30 71v6m36-6v6"/>
    <path d="M48 18v15m-8 0h16l-5 7h-6z"/>
  </g>
  <path fill="#cf4732" d="M44 14h8v9h-8zM17 79h62v5H17z"/>
</svg>
