<?xml version="1.0" encoding="UTF-8"?>
<svg xmlns="http://www.w3.org/2000/svg" width="96" height="96" viewBox="0 0 96 96" role="img" aria-labelledby="title desc">
  <title id="title">Yard managers</title>
  <desc id="desc">Dark-background variant. A yard plan with connected operating zones and a highlighted route.</desc>
  <path fill="#f4f1ec" d="M8 8h58l22 22v58H8z"/>
  <path fill="#cf4732" d="M8 8h40v6H8zM66 8v22h22z"/>
  <g fill="none" stroke="#202225" stroke-width="4" stroke-linecap="square" stroke-linejoin="miter">
    <path d="M18 29h60v47H18zM27 38h17v13H27zM53 38h16v13H53zM27 60h17v8H27zM53 60h16v8H53z"/>
    <path d="M44 44h9M35 51v9m26-9v9"/>
  </g>
  <path fill="#cf4732" d="M31 33h9v5h-9zM57 55h8v5h-8zM40 42h17v5H40z"/>
</svg>
